<svg width="177" height="150" xmlns="http://www.w3.org/2000/svg"><defs><linearGradient x1="0%" y1="-.274%" x2="100%" y2="100.274%" id="a"><stop stop-color="#F6C338" offset="0%"/><stop stop-color="#FFD351" offset="52.3%"/><stop stop-color="#F6C338" offset="100%"/></linearGradient><linearGradient x1="100%" y1=".473%" x2="0%" y2="99.527%" id="b"><stop stop-color="#286EE6" offset="0%"/><stop stop-color="#4286FB" offset="52.1%"/><stop stop-color="#286EE6" offset="100%"/></linearGradient><linearGradient x1="65.332%" y1="0%" x2="35.956%" y2="100%" id="c"><stop stop-color="#069B5A" offset="0%"/><stop stop-color="#11AA62" offset="53.1%"/><stop stop-color="#069B5A" offset="100%"/></linearGradient></defs><g fill-rule="nonzero" fill="none"><path fill="url(#a)" d="M36 0h38.135L110 62H71.779z" transform="translate(34 28)"/><path fill="url(#b)" d="M110 62 90.82 95H19l19.224-33z" transform="translate(34 28)"/><path fill="url(#c)" d="M19.078 95 0 61.917 35.793 0 55 33.168z" transform="translate(34 28)"/><path d="m53 123 35.738-33.083H72.224L53 123Zm91-33.083h-38.318l-8.43-14.503L144 89.917ZM69.73 28l11.052 47.2 8.17-14.032L69.73 28Z" fill="#000" opacity=".1"/></g></svg>