<svg width="177" height="150" xmlns="http://www.w3.org/2000/svg"><defs><radialGradient cx="50.014%" cy="54.715%" fx="50.014%" fy="54.715%" r="71.929%" gradientTransform="matrix(.92174 0 0 1 .04 0)" id="a"><stop stop-color="#FFB900" offset="0%"/><stop stop-color="#F95D8F" offset="60%"/><stop stop-color="#F95353" offset="99.9%"/></radialGradient></defs><path d="M89.99 56.117c-13.814 0-25.011 11.166-25.011 24.94C64.979 94.832 76.176 106 89.991 106 103.803 106 115 94.832 115 81.057c0-13.774-11.197-24.94-25.01-24.94Zm-64.98.001C11.199 56.12 0 67.283 0 81.058c0 13.774 11.198 24.94 25.01 24.94 13.814 0 25.012-11.166 25.012-24.94 0-13.775-11.198-24.94-25.013-24.94h.002Zm57.5-31.177c0 13.774-11.196 24.943-25.009 24.943-13.814 0-25.011-11.17-25.011-24.943C32.49 11.167 43.687 0 57.5 0 71.314 0 82.51 11.167 82.51 24.94h.002Z" transform="translate(31 22)" fill="url(#a)" fill-rule="nonzero"/></svg>