<svg xmlns="http://www.w3.org/2000/svg" width="177" height="150"><defs><linearGradient x1="80.525%" y1="15.69%" x2="43.803%" y2="97.348%" id="a"><stop stop-color="#0052CC" offset="0%"/><stop stop-color="#2684FF" offset="92%"/></linearGradient></defs><g fill-rule="nonzero" fill="none"><path d="M32.218 50.223a3.09 3.09 0 0 0-4.339-.588 3.23 3.23 0 0 0-.906 1.138L.336 104.365a3.211 3.211 0 0 0 1.424 4.295c.441.224.93.34 1.424.339h37.11a3.055 3.055 0 0 0 2.848-1.77c8.01-16.639 3.154-41.935-10.924-57.006Z" fill="url(#a)" transform="translate(35 21)"/><path d="M86.473 22.734a70.061 70.061 0 0 0-4.15 69.604l18.083 35.896a3.22 3.22 0 0 0 2.878 1.766h37.498a3.223 3.223 0 0 0 2.278-.933c.604-.6.942-1.413.94-2.261 0-.495-.114-.984-.333-1.428L91.948 22.719A3.03 3.03 0 0 0 89.211 21a3.03 3.03 0 0 0-2.738 1.72v.014Z" fill="#2684FF"/></g></svg>