<svg width="177" height="150" xmlns="http://www.w3.org/2000/svg"><g fill-rule="nonzero" fill="none"><path d="M62.902 123A53.774 53.774 0 0 1 51 114.348V98.773L66.693 84.65v14.089L129.722 42c3.446 4.203 6.233 8.95 8.278 14.076L62.902 123" fill="#FF4B19"/><path d="m95.808 109.522 45.631-40.888c.33 2.415.561 4.86.561 7.366 0 5.396-.816 10.598-2.29 15.515L96.85 129.206c-2.903.482-5.865.794-8.906.794-2.707 0-5.345-.264-7.945-.647V22.647c2.6-.383 5.238-.647 7.945-.647 2.678 0 5.29.259 7.863.635v86.887" fill="#00D2FF"/><path d="M80.087 71.004 121 34.056A53.508 53.508 0 0 0 106.565 26L36 89.91A53.601 53.601 0 0 0 42.442 105l37.645-33.996" fill="#556991"/><path d="M51 97.155V101l16-14.397V26a54.766 54.766 0 0 0-16 10.674v60.481" fill="#FF4B19"/></g></svg>