<svg width="177" height="150" xmlns="http://www.w3.org/2000/svg"><g fill-rule="nonzero" fill="none"><path d="M124.33 42.833c-.073-.537-.544-.835-.933-.868-.388-.032-8.604-.642-8.604-.642s-5.707-5.67-6.333-6.298c-.627-.627-1.85-.436-2.326-.297l-3.193.988c-1.906-5.49-5.27-10.536-11.189-10.536a8.85 8.85 0 0 0-.5.016C89.57 22.968 87.486 22 85.685 22 71.897 22 65.31 39.25 63.246 48.017a8510.648 8510.648 0 0 0-9.65 2.996c-2.99.939-3.084 1.033-3.477 3.853-.295 2.136-8.119 62.7-8.119 62.7L102.966 129 136 121.847s-11.596-78.476-11.669-79.014ZM99.572 36.76l-5.158 1.598c.001-.364.003-.722.003-1.114 0-3.412-.473-6.16-1.232-8.337 3.05.383 5.08 3.856 6.387 7.853Zm-10.17-7.176c.848 2.126 1.4 5.178 1.4 9.295 0 .211-.003.404-.005.599l-10.654 3.302c2.052-7.925 5.897-11.753 9.26-13.196ZM85.305 25.7c.595 0 1.195.203 1.768.598-4.418 2.08-9.154 7.322-11.154 17.79l-8.422 2.61C69.84 38.715 75.402 25.7 85.305 25.7Z" fill="#95BF46"/><path d="M123.409 41.393c-.388-.032-8.597-.646-8.597-.646s-5.7-5.708-6.326-6.34c-.235-.235-.55-.355-.88-.407L103 129l33-7.2s-11.586-78.992-11.659-79.533c-.073-.541-.544-.84-.932-.874" fill="#5E8E3E"/><path d="m92 59.62-4.035 12.288s-3.535-1.932-7.868-1.932c-6.352 0-6.672 4.082-6.672 5.11 0 5.613 14.288 7.764 14.288 20.91 0 10.344-6.406 17.004-15.045 17.004C62.3 113 57 106.394 57 106.394l2.776-9.39s5.449 4.79 10.047 4.79c3.005 0 4.227-2.422 4.227-4.192 0-7.322-11.722-7.648-11.722-19.678C62.328 67.798 69.425 58 83.752 58 89.272 58 92 59.62 92 59.62" fill="#FFF"/></g></svg>