<svg width="25" height="25" fill="none" xmlns="http://www.w3.org/2000/svg"><path d="M24.562.442a1.042 1.042 0 0 0-.792-.307C9.157.898 3.76 13.915 3.707 14.045c-.156.388-.065.83.23 1.126l5.892 5.893c.297.296.742.385 1.13.227.13-.053 13.077-5.512 13.904-20.056a1.042 1.042 0 0 0-.3-.793ZM16.056 11.89a2.084 2.084 0 1 1-2.947-2.947 2.084 2.084 0 0 1 2.947 2.947ZM1.16 19.63a2.962 2.962 0 1 1 4.189 4.189C4.192 24.976 0 24.999 0 24.999s0-4.214 1.16-5.37Z" fill="#7035C2"/><path d="M10.788 2.439a9.282 9.282 0 0 0-8.161 2.587 9.462 9.462 0 0 0-1.442 1.875c-.24.41-.175.93.162 1.266l2.071 2.073a27.731 27.731 0 0 1 7.37-7.801ZM22.562 14.211a9.282 9.282 0 0 1-2.588 8.162 9.467 9.467 0 0 1-1.875 1.442c-.41.24-.93.174-1.265-.162l-2.073-2.072a27.732 27.732 0 0 0 7.8-7.37Z" fill="#F45BA4"/></svg>